<mxfile host="app.diagrams.net" modified="2022-05-11T13:17:11.150Z" agent="5.0 (Macintosh; Intel Mac OS X 10_15_7) AppleWebKit/537.36 (KHTML, like Gecko) Chrome/101.0.4951.54 Safari/537.36" etag="KvmDlrlIJp75R1n2tdWi" version="15.1.4" type="github">
  <diagram id="upLNlx4rQRR-829JE8g-" name="Page-1">
    <mxGraphModel dx="1298" dy="809" grid="1" gridSize="10" guides="1" tooltips="1" connect="1" arrows="1" fold="1" page="1" pageScale="1" pageWidth="827" pageHeight="1169" math="0" shadow="0">
      <root>
        <mxCell id="0" />
        <mxCell id="1" parent="0" />
        <mxCell id="l6rExtA51tyQ0Nd_r-lp-1" value="Wealth DIstribution Model Java Replication Class Design" style="text;html=1;strokeColor=none;fillColor=none;align=center;verticalAlign=middle;whiteSpace=wrap;rounded=0;" vertex="1" parent="1">
          <mxGeometry x="300" y="10" width="180" height="40" as="geometry" />
        </mxCell>
        <mxCell id="l6rExtA51tyQ0Nd_r-lp-30" style="edgeStyle=orthogonalEdgeStyle;rounded=0;orthogonalLoop=1;jettySize=auto;html=1;endArrow=none;endFill=0;startArrow=block;startFill=1;" edge="1" parent="1" source="l6rExtA51tyQ0Nd_r-lp-2">
          <mxGeometry relative="1" as="geometry">
            <mxPoint x="150" y="260" as="targetPoint" />
            <Array as="points">
              <mxPoint x="190" y="220" />
              <mxPoint x="150" y="220" />
              <mxPoint x="150" y="260" />
            </Array>
          </mxGeometry>
        </mxCell>
        <mxCell id="l6rExtA51tyQ0Nd_r-lp-2" value="Coordinate" style="swimlane;fontStyle=1;align=center;verticalAlign=top;childLayout=stackLayout;horizontal=1;startSize=26;horizontalStack=0;resizeParent=1;resizeParentMax=0;resizeLast=0;collapsible=1;marginBottom=0;" vertex="1" parent="1">
          <mxGeometry x="70" y="96" width="210" height="78" as="geometry" />
        </mxCell>
        <mxCell id="l6rExtA51tyQ0Nd_r-lp-3" value="- x: int&#xa;- y: int" style="text;strokeColor=none;fillColor=none;align=left;verticalAlign=top;spacingLeft=4;spacingRight=4;overflow=hidden;rotatable=0;points=[[0,0.5],[1,0.5]];portConstraint=eastwest;" vertex="1" parent="l6rExtA51tyQ0Nd_r-lp-2">
          <mxGeometry y="26" width="210" height="44" as="geometry" />
        </mxCell>
        <mxCell id="l6rExtA51tyQ0Nd_r-lp-4" value="" style="line;strokeWidth=1;fillColor=none;align=left;verticalAlign=middle;spacingTop=-1;spacingLeft=3;spacingRight=3;rotatable=0;labelPosition=right;points=[];portConstraint=eastwest;" vertex="1" parent="l6rExtA51tyQ0Nd_r-lp-2">
          <mxGeometry y="70" width="210" height="8" as="geometry" />
        </mxCell>
        <mxCell id="l6rExtA51tyQ0Nd_r-lp-6" value="DataPiece" style="swimlane;fontStyle=1;align=center;verticalAlign=top;childLayout=stackLayout;horizontal=1;startSize=26;horizontalStack=0;resizeParent=1;resizeParentMax=0;resizeLast=0;collapsible=1;marginBottom=0;" vertex="1" parent="1">
          <mxGeometry x="300" y="96" width="160" height="114" as="geometry" />
        </mxCell>
        <mxCell id="l6rExtA51tyQ0Nd_r-lp-7" value="- currentTick: int&#xa;- lorenzPoint: double&#xa;- giniIndex: double" style="text;strokeColor=none;fillColor=none;align=left;verticalAlign=top;spacingLeft=4;spacingRight=4;overflow=hidden;rotatable=0;points=[[0,0.5],[1,0.5]];portConstraint=eastwest;" vertex="1" parent="l6rExtA51tyQ0Nd_r-lp-6">
          <mxGeometry y="26" width="160" height="54" as="geometry" />
        </mxCell>
        <mxCell id="l6rExtA51tyQ0Nd_r-lp-8" value="" style="line;strokeWidth=1;fillColor=none;align=left;verticalAlign=middle;spacingTop=-1;spacingLeft=3;spacingRight=3;rotatable=0;labelPosition=right;points=[];portConstraint=eastwest;" vertex="1" parent="l6rExtA51tyQ0Nd_r-lp-6">
          <mxGeometry y="80" width="160" height="8" as="geometry" />
        </mxCell>
        <mxCell id="l6rExtA51tyQ0Nd_r-lp-9" value="+ toString(): String" style="text;strokeColor=none;fillColor=none;align=left;verticalAlign=top;spacingLeft=4;spacingRight=4;overflow=hidden;rotatable=0;points=[[0,0.5],[1,0.5]];portConstraint=eastwest;" vertex="1" parent="l6rExtA51tyQ0Nd_r-lp-6">
          <mxGeometry y="88" width="160" height="26" as="geometry" />
        </mxCell>
        <mxCell id="l6rExtA51tyQ0Nd_r-lp-10" value="&lt;Interface&gt;&#xa;GenericData" style="swimlane;fontStyle=1;align=center;verticalAlign=top;childLayout=stackLayout;horizontal=1;startSize=42;horizontalStack=0;resizeParent=1;resizeParentMax=0;resizeLast=0;collapsible=1;marginBottom=0;" vertex="1" parent="1">
          <mxGeometry x="510" y="96" width="240" height="102" as="geometry" />
        </mxCell>
        <mxCell id="l6rExtA51tyQ0Nd_r-lp-11" value="+ field: type" style="text;strokeColor=none;fillColor=none;align=left;verticalAlign=top;spacingLeft=4;spacingRight=4;overflow=hidden;rotatable=0;points=[[0,0.5],[1,0.5]];portConstraint=eastwest;" vertex="1" parent="l6rExtA51tyQ0Nd_r-lp-10">
          <mxGeometry y="42" width="240" height="26" as="geometry" />
        </mxCell>
        <mxCell id="l6rExtA51tyQ0Nd_r-lp-12" value="" style="line;strokeWidth=1;fillColor=none;align=left;verticalAlign=middle;spacingTop=-1;spacingLeft=3;spacingRight=3;rotatable=0;labelPosition=right;points=[];portConstraint=eastwest;" vertex="1" parent="l6rExtA51tyQ0Nd_r-lp-10">
          <mxGeometry y="68" width="240" height="8" as="geometry" />
        </mxCell>
        <mxCell id="l6rExtA51tyQ0Nd_r-lp-13" value="+ method(type): type" style="text;strokeColor=none;fillColor=none;align=left;verticalAlign=top;spacingLeft=4;spacingRight=4;overflow=hidden;rotatable=0;points=[[0,0.5],[1,0.5]];portConstraint=eastwest;" vertex="1" parent="l6rExtA51tyQ0Nd_r-lp-10">
          <mxGeometry y="76" width="240" height="26" as="geometry" />
        </mxCell>
        <mxCell id="l6rExtA51tyQ0Nd_r-lp-16" style="edgeStyle=orthogonalEdgeStyle;rounded=0;orthogonalLoop=1;jettySize=auto;html=1;entryX=0.471;entryY=-0.01;entryDx=0;entryDy=0;dashed=1;endArrow=block;endFill=0;entryPerimeter=0;exitX=0.5;exitY=0;exitDx=0;exitDy=0;" edge="1" parent="1" source="l6rExtA51tyQ0Nd_r-lp-6" target="l6rExtA51tyQ0Nd_r-lp-10">
          <mxGeometry relative="1" as="geometry">
            <Array as="points">
              <mxPoint x="380" y="80" />
              <mxPoint x="623" y="80" />
            </Array>
          </mxGeometry>
        </mxCell>
        <mxCell id="l6rExtA51tyQ0Nd_r-lp-17" value="MathsModel" style="swimlane;fontStyle=1;align=center;verticalAlign=top;childLayout=stackLayout;horizontal=1;startSize=26;horizontalStack=0;resizeParent=1;resizeParentMax=0;resizeLast=0;collapsible=1;marginBottom=0;" vertex="1" parent="1">
          <mxGeometry x="70" y="662" width="380" height="110" as="geometry" />
        </mxCell>
        <mxCell id="l6rExtA51tyQ0Nd_r-lp-18" value="+ field: type" style="text;strokeColor=none;fillColor=none;align=left;verticalAlign=top;spacingLeft=4;spacingRight=4;overflow=hidden;rotatable=0;points=[[0,0.5],[1,0.5]];portConstraint=eastwest;" vertex="1" parent="l6rExtA51tyQ0Nd_r-lp-17">
          <mxGeometry y="26" width="380" height="26" as="geometry" />
        </mxCell>
        <mxCell id="l6rExtA51tyQ0Nd_r-lp-19" value="" style="line;strokeWidth=1;fillColor=none;align=left;verticalAlign=middle;spacingTop=-1;spacingLeft=3;spacingRight=3;rotatable=0;labelPosition=right;points=[];portConstraint=eastwest;" vertex="1" parent="l6rExtA51tyQ0Nd_r-lp-17">
          <mxGeometry y="52" width="380" height="8" as="geometry" />
        </mxCell>
        <mxCell id="l6rExtA51tyQ0Nd_r-lp-20" value="+ updateLorenzAndGini(currentTick: int, people: Person[]): DataPiece&#xa;+ writeFile(fileName: String, allData: ArrayList&lt;DataPiece&gt;): void" style="text;strokeColor=none;fillColor=none;align=left;verticalAlign=top;spacingLeft=4;spacingRight=4;overflow=hidden;rotatable=0;points=[[0,0.5],[1,0.5]];portConstraint=eastwest;" vertex="1" parent="l6rExtA51tyQ0Nd_r-lp-17">
          <mxGeometry y="60" width="380" height="50" as="geometry" />
        </mxCell>
        <mxCell id="l6rExtA51tyQ0Nd_r-lp-21" value="Params" style="swimlane;fontStyle=0;childLayout=stackLayout;horizontal=1;startSize=26;fillColor=none;horizontalStack=0;resizeParent=1;resizeParentMax=0;resizeLast=0;collapsible=1;marginBottom=0;" vertex="1" parent="1">
          <mxGeometry x="510" y="232" width="240" height="430" as="geometry" />
        </mxCell>
        <mxCell id="l6rExtA51tyQ0Nd_r-lp-22" value="+ DIRECTION: int = 4" style="text;fillColor=none;align=left;verticalAlign=top;spacingLeft=4;spacingRight=4;overflow=hidden;rotatable=0;points=[[0,0.5],[1,0.5]];portConstraint=eastwest;glass=0;fontStyle=4" vertex="1" parent="l6rExtA51tyQ0Nd_r-lp-21">
          <mxGeometry y="26" width="240" height="26" as="geometry" />
        </mxCell>
        <mxCell id="l6rExtA51tyQ0Nd_r-lp-23" value="+ MAX_LIFE_EXPECTANCY: int = 100" style="text;strokeColor=none;fillColor=none;align=left;verticalAlign=top;spacingLeft=4;spacingRight=4;overflow=hidden;rotatable=0;points=[[0,0.5],[1,0.5]];portConstraint=eastwest;fontStyle=4" vertex="1" parent="l6rExtA51tyQ0Nd_r-lp-21">
          <mxGeometry y="52" width="240" height="28" as="geometry" />
        </mxCell>
        <mxCell id="l6rExtA51tyQ0Nd_r-lp-24" value="+ MIN_LIFE_EXPECTANCY: int = 1&#xa;&#xa;+ MAX_METABOLISM: int = 15&#xa;&#xa;+ MAX_VISION: int = 5&#xa;&#xa;+ PERCENT_BEST_LAND: int = 10&#xa;&#xa;+ MAX_GRAIN: int = 100&#xa;&#xa;+ DIFFUSE_RATE: double = 0.25&#xa;&#xa;+ NUM_PEOPLE: int = 250&#xa;&#xa;+ GRAIN_GROWTH_INTERVAL: int = 1&#xa;&#xa;+ NUM_GRAIN_GRWON: int = 4&#xa;&#xa;+ MAX_SIZE_X: int = 51&#xa;&#xa;+ MAX_SIZE_Y: int = 51&#xa;&#xa;+ TICKS: int = 200" style="text;strokeColor=none;fillColor=none;align=left;verticalAlign=top;spacingLeft=4;spacingRight=4;overflow=hidden;rotatable=0;points=[[0,0.5],[1,0.5]];portConstraint=eastwest;fontStyle=4" vertex="1" parent="l6rExtA51tyQ0Nd_r-lp-21">
          <mxGeometry y="80" width="240" height="350" as="geometry" />
        </mxCell>
        <mxCell id="l6rExtA51tyQ0Nd_r-lp-26" value="Patch" style="swimlane;fontStyle=1;align=center;verticalAlign=top;childLayout=stackLayout;horizontal=1;startSize=26;horizontalStack=0;resizeParent=1;resizeParentMax=0;resizeLast=0;collapsible=1;marginBottom=0;glass=0;strokeColor=#000000;" vertex="1" parent="1">
          <mxGeometry x="70" y="260" width="160" height="130" as="geometry" />
        </mxCell>
        <mxCell id="l6rExtA51tyQ0Nd_r-lp-27" value="+ patchLocation: Coordinate&#xa;- maxGrainHere: double&#xa;- grainHere: double" style="text;strokeColor=none;fillColor=none;align=left;verticalAlign=top;spacingLeft=4;spacingRight=4;overflow=hidden;rotatable=0;points=[[0,0.5],[1,0.5]];portConstraint=eastwest;" vertex="1" parent="l6rExtA51tyQ0Nd_r-lp-26">
          <mxGeometry y="26" width="160" height="54" as="geometry" />
        </mxCell>
        <mxCell id="l6rExtA51tyQ0Nd_r-lp-28" value="" style="line;strokeWidth=1;fillColor=none;align=left;verticalAlign=middle;spacingTop=-1;spacingLeft=3;spacingRight=3;rotatable=0;labelPosition=right;points=[];portConstraint=eastwest;" vertex="1" parent="l6rExtA51tyQ0Nd_r-lp-26">
          <mxGeometry y="80" width="160" height="8" as="geometry" />
        </mxCell>
        <mxCell id="l6rExtA51tyQ0Nd_r-lp-29" value="+ isBestLand(): boolean&#xa;+ growGrain(): void" style="text;strokeColor=none;fillColor=none;align=left;verticalAlign=top;spacingLeft=4;spacingRight=4;overflow=hidden;rotatable=0;points=[[0,0.5],[1,0.5]];portConstraint=eastwest;" vertex="1" parent="l6rExtA51tyQ0Nd_r-lp-26">
          <mxGeometry y="88" width="160" height="42" as="geometry" />
        </mxCell>
        <mxCell id="l6rExtA51tyQ0Nd_r-lp-36" style="edgeStyle=orthogonalEdgeStyle;rounded=0;orthogonalLoop=1;jettySize=auto;html=1;entryX=0.5;entryY=1;entryDx=0;entryDy=0;startArrow=none;startFill=0;endArrow=none;endFill=0;" edge="1" parent="1" source="l6rExtA51tyQ0Nd_r-lp-31" target="l6rExtA51tyQ0Nd_r-lp-2">
          <mxGeometry relative="1" as="geometry">
            <Array as="points">
              <mxPoint x="350" y="220" />
              <mxPoint x="190" y="220" />
            </Array>
          </mxGeometry>
        </mxCell>
        <mxCell id="l6rExtA51tyQ0Nd_r-lp-31" value="Person" style="swimlane;fontStyle=1;align=center;verticalAlign=top;childLayout=stackLayout;horizontal=1;startSize=26;horizontalStack=0;resizeParent=1;resizeParentMax=0;resizeLast=0;collapsible=1;marginBottom=0;glass=0;strokeColor=#000000;" vertex="1" parent="1">
          <mxGeometry x="240" y="232" width="220" height="210" as="geometry" />
        </mxCell>
        <mxCell id="l6rExtA51tyQ0Nd_r-lp-32" value="- age: int&#xa;- wealth: double&#xa;- lifeExpectancy: int&#xa;- metabolism: int&#xa;- vision: int&#xa;- location: Coordinate&#xa;- faceDirection: int&#xa;- world: World" style="text;strokeColor=none;fillColor=none;align=left;verticalAlign=top;spacingLeft=4;spacingRight=4;overflow=hidden;rotatable=0;points=[[0,0.5],[1,0.5]];portConstraint=eastwest;" vertex="1" parent="l6rExtA51tyQ0Nd_r-lp-31">
          <mxGeometry y="26" width="220" height="124" as="geometry" />
        </mxCell>
        <mxCell id="l6rExtA51tyQ0Nd_r-lp-33" value="" style="line;strokeWidth=1;fillColor=none;align=left;verticalAlign=middle;spacingTop=-1;spacingLeft=3;spacingRight=3;rotatable=0;labelPosition=right;points=[];portConstraint=eastwest;" vertex="1" parent="l6rExtA51tyQ0Nd_r-lp-31">
          <mxGeometry y="150" width="220" height="8" as="geometry" />
        </mxCell>
        <mxCell id="l6rExtA51tyQ0Nd_r-lp-34" value="+ turnTowardsGrain(): void&#xa;+ harvest(): void&#xa;+ moveEatAgeDie(): void&#xa;" style="text;strokeColor=none;fillColor=none;align=left;verticalAlign=top;spacingLeft=4;spacingRight=4;overflow=hidden;rotatable=0;points=[[0,0.5],[1,0.5]];portConstraint=eastwest;" vertex="1" parent="l6rExtA51tyQ0Nd_r-lp-31">
          <mxGeometry y="158" width="220" height="52" as="geometry" />
        </mxCell>
        <mxCell id="l6rExtA51tyQ0Nd_r-lp-41" style="edgeStyle=orthogonalEdgeStyle;rounded=0;orthogonalLoop=1;jettySize=auto;html=1;startArrow=none;startFill=0;endArrow=block;endFill=1;" edge="1" parent="1" source="l6rExtA51tyQ0Nd_r-lp-37" target="l6rExtA51tyQ0Nd_r-lp-26">
          <mxGeometry relative="1" as="geometry">
            <Array as="points">
              <mxPoint x="175" y="420" />
              <mxPoint x="150" y="420" />
            </Array>
          </mxGeometry>
        </mxCell>
        <mxCell id="l6rExtA51tyQ0Nd_r-lp-44" style="edgeStyle=orthogonalEdgeStyle;rounded=0;orthogonalLoop=1;jettySize=auto;html=1;entryX=0;entryY=0.5;entryDx=0;entryDy=0;startArrow=none;startFill=0;endArrow=block;endFill=1;" edge="1" parent="1" source="l6rExtA51tyQ0Nd_r-lp-37" target="l6rExtA51tyQ0Nd_r-lp-34">
          <mxGeometry relative="1" as="geometry" />
        </mxCell>
        <mxCell id="l6rExtA51tyQ0Nd_r-lp-45" style="edgeStyle=orthogonalEdgeStyle;rounded=0;orthogonalLoop=1;jettySize=auto;html=1;entryX=1;entryY=0.5;entryDx=0;entryDy=0;startArrow=none;startFill=0;endArrow=block;endFill=1;" edge="1" parent="1" source="l6rExtA51tyQ0Nd_r-lp-37" target="l6rExtA51tyQ0Nd_r-lp-7">
          <mxGeometry relative="1" as="geometry">
            <Array as="points">
              <mxPoint x="480" y="555" />
              <mxPoint x="480" y="149" />
            </Array>
          </mxGeometry>
        </mxCell>
        <mxCell id="l6rExtA51tyQ0Nd_r-lp-47" style="edgeStyle=orthogonalEdgeStyle;rounded=0;orthogonalLoop=1;jettySize=auto;html=1;startArrow=none;startFill=0;endArrow=block;endFill=1;" edge="1" parent="1" source="l6rExtA51tyQ0Nd_r-lp-37">
          <mxGeometry relative="1" as="geometry">
            <mxPoint x="310" y="660" as="targetPoint" />
          </mxGeometry>
        </mxCell>
        <mxCell id="l6rExtA51tyQ0Nd_r-lp-37" value="World" style="swimlane;fontStyle=1;align=center;verticalAlign=top;childLayout=stackLayout;horizontal=1;startSize=26;horizontalStack=0;resizeParent=1;resizeParentMax=0;resizeLast=0;collapsible=1;marginBottom=0;glass=0;strokeColor=#000000;" vertex="1" parent="1">
          <mxGeometry x="70" y="460" width="210" height="190" as="geometry" />
        </mxCell>
        <mxCell id="l6rExtA51tyQ0Nd_r-lp-38" value="+ patches: Patch[][]&#xa;- people: Person[]&#xa;- peopleLoc: ArrayList&lt;int[]&gt;&#xa;- allData: ArrayList&lt;DataPiece&gt;" style="text;strokeColor=none;fillColor=none;align=left;verticalAlign=top;spacingLeft=4;spacingRight=4;overflow=hidden;rotatable=0;points=[[0,0.5],[1,0.5]];portConstraint=eastwest;" vertex="1" parent="l6rExtA51tyQ0Nd_r-lp-37">
          <mxGeometry y="26" width="210" height="64" as="geometry" />
        </mxCell>
        <mxCell id="l6rExtA51tyQ0Nd_r-lp-39" value="" style="line;strokeWidth=1;fillColor=none;align=left;verticalAlign=middle;spacingTop=-1;spacingLeft=3;spacingRight=3;rotatable=0;labelPosition=right;points=[];portConstraint=eastwest;" vertex="1" parent="l6rExtA51tyQ0Nd_r-lp-37">
          <mxGeometry y="90" width="210" height="8" as="geometry" />
        </mxCell>
        <mxCell id="l6rExtA51tyQ0Nd_r-lp-40" value="+ main(args: String[]): void&#xa;+ go(): void&#xa;+ setUpPatches(): void&#xa;+ setUpTurtles(): void&#xa;+ diffuse(patch: Patch): void&#xa;+ round(d: double): int" style="text;strokeColor=none;fillColor=none;align=left;verticalAlign=top;spacingLeft=4;spacingRight=4;overflow=hidden;rotatable=0;points=[[0,0.5],[1,0.5]];portConstraint=eastwest;" vertex="1" parent="l6rExtA51tyQ0Nd_r-lp-37">
          <mxGeometry y="98" width="210" height="92" as="geometry" />
        </mxCell>
      </root>
    </mxGraphModel>
  </diagram>
</mxfile>
